<?xml version="1.0" encoding="utf-8"?>
<!-- Generator: Adobe Illustrator 16.0.0, SVG Export Plug-In . SVG Version: 6.00 Build 0)  -->
<!DOCTYPE svg PUBLIC "-//W3C//DTD SVG 1.1//EN" "http://www.w3.org/Graphics/SVG/1.1/DTD/svg11.dtd">
<svg version="1.1" id="Layer_1" xmlns="http://www.w3.org/2000/svg" xmlns:xlink="http://www.w3.org/1999/xlink" x="0px" y="0px"
	 width="78px" height="76px" viewBox="0 0 78 76" enable-background="new 0 0 78 76" xml:space="preserve">
<g>
	<path fill-rule="evenodd" clip-rule="evenodd" fill="#FFFFFF" d="M34.995,3.201c1.213-0.873,2.43-1.74,3.575-2.701
		c0.064,0,0.129,0,0.193,0c0.783,0.729,1.691,1.295,2.537,1.941c2.557,1.954,5.211,3.775,7.709,5.805
		c0.385,0.313,0.758,0.642,1.135,0.964c0.227,0.024,0.318,0.189,0.391,0.375c1.406,1.428,2.762,2.899,3.932,4.535
		c1.775,2.479,3.051,5.163,3.49,8.207c0.797,5.493-0.443,10.419-3.926,14.803c-2.52,3.171-5.826,5.01-9.619,6.134
		c-0.045,0.014-0.096,0.004-0.145,0.006c-0.271,0.003-0.529-0.141-0.82-0.042c-0.174,0.061-0.254-0.14-0.35-0.257
		c0.002-1.703,0.006-3.407,0.006-5.109c0-0.144,0.025-0.24,0.191-0.277c1.848-0.427,3.289-1.577,4.762-2.675
		c2.561-1.908,3.768-4.604,4.291-7.624c0.521-3.024-0.18-5.873-1.662-8.532c-0.404-0.724-0.873-1.412-1.313-2.116
		c-0.09-0.176,0.08-0.319,0.084-0.485c-0.156-0.028-0.246,0.098-0.371,0.099c-1.48-1.813-3.258-3.321-5.01-4.854
		c-0.035-0.093-0.059-0.201-0.201-0.172c-0.074-0.062-0.148-0.125-0.223-0.187c0.008-0.188-0.156-0.16-0.262-0.207
		c-1.531-1.133-3.063-2.263-4.588-3.404c-0.119-0.088-0.16-0.091-0.268,0.007c-1.143,1.034-2.493,1.791-3.691,2.756
		c-2.053,1.653-4.096,3.321-5.834,5.312c-1.968,2.253-3.385,4.814-3.894,7.793c-0.595,3.482,0.244,6.66,2.222,9.558
		c0.104,0.015,0.127,0.089,0.128,0.178c0.633,0.956,1.548,1.615,2.44,2.291c1.185,0.899,2.404,1.773,3.858,2.168
		c0.586,0.159,0.68,0.42,0.668,0.954c-0.034,1.574-0.021,3.15,0.001,4.726c0.005,0.351-0.092,0.458-0.418,0.37
		c-3.779-1.007-7.248-2.53-9.896-5.578c-2.221-2.555-3.843-5.393-4.525-8.725c-0.471-2.303-0.436-4.623-0.104-6.945
		c0.645-4.506,3.081-8.05,6.052-11.309c0.161-0.177,0.322-0.353,0.483-0.53c0.061-0.2,0.192-0.329,0.39-0.393
		c0.092-0.069,0.184-0.138,0.275-0.207c0.06,0.022,0.045,0.171,0.146,0.103c0.077-0.051-0.02-0.037-0.031-0.039
		c-0.047-0.008-0.091-0.018-0.119-0.061c0.985-1.054,2.088-1.973,3.246-2.831c1.334-0.989,2.667-1.978,4-2.966
		c0.092,0.067,0.195,0.075,0.303,0.057c-0.082-0.026-0.244,0.063-0.202-0.141c0.098-0.092,0.197-0.184,0.295-0.276
		C34.474,3.431,34.704,3.274,34.995,3.201z"/>
	<path fill-rule="evenodd" clip-rule="evenodd" fill="#FFFFFF" d="M77.004,72.223c-0.273,0.403-0.676,0.622-1.121,0.772
		c-1.398,0.474-2.801,0.514-4.188-0.018c-0.742-0.284-1.23-0.83-1.432-1.622c-0.082-0.326-0.072-0.503,0.35-0.481
		c0.625,0.032,1.254,0.014,1.881,0.005c0.207-0.002,0.326,0.021,0.41,0.267c0.193,0.566,0.963,0.811,1.484,0.514
		c0.197-0.112,0.299-0.274,0.301-0.511c0.002-0.284-0.189-0.414-0.402-0.472c-0.66-0.18-1.334-0.313-1.996-0.494
		c-0.607-0.166-1.199-0.392-1.566-0.952c-0.674-1.028-0.301-2.435,0.854-2.981c1.484-0.7,3.008-0.676,4.504-0.004
		c0.592,0.265,0.924,0.776,1.086,1.392c0.063,0.239,0.043,0.426-0.313,0.408c-0.609-0.029-1.221-0.016-1.832-0.004
		c-0.211,0.004-0.324-0.031-0.43-0.252c-0.209-0.445-0.881-0.592-1.287-0.326c-0.303,0.196-0.285,0.539,0.049,0.719
		c0.396,0.215,0.848,0.257,1.277,0.373c0.385,0.104,0.777,0.179,1.158,0.299c0.756,0.24,1.367,0.666,1.68,1.434
		c0,0.322,0,0.645,0,0.966C77.211,71.527,76.857,71.755,77.004,72.223z"/>
	<path fill-rule="evenodd" clip-rule="evenodd" fill="#FFFFFF" d="M77.004,72.223c-0.234-0.29-0.225-0.416,0.049-0.545
		c0.072-0.034,0.088-0.079,0.07-0.152c-0.088-0.347,0.205-0.213,0.348-0.272c0,0.064,0,0.128,0,0.192
		C77.291,71.691,77.275,72.034,77.004,72.223z"/>
	<path fill-rule="evenodd" clip-rule="evenodd" fill="#FFFFFF" d="M32.559,30.145c-0.62-0.583-1.307-1.077-2.025-1.532
		c-0.695-0.441-1.421-0.794-2.266-0.804c-0.27-0.003-0.344-0.109-0.342-0.376c0.008-1.688,0-3.376-0.009-5.065
		c-0.001-0.226,0.021-0.364,0.308-0.332c2.037,0.23,4.001,0.708,5.69,1.92c1.962,1.408,3.614,3.118,4.73,5.294
		c0.021,0.042,0.031,0.089,0.053,0.151c0.463-1.281,1.401-2.218,2.229-3.221c1.725-2.085,3.92-3.413,6.588-3.92
		c0.596-0.113,1.201-0.165,1.801-0.259c0.221-0.035,0.324-0.003,0.32,0.255c-0.025,1.736-0.043,3.472-0.057,5.208
		c-0.002,0.211-0.053,0.313-0.283,0.346c-1.793,0.251-3.238,1.151-4.424,2.47c-1.553,1.73-2.705,3.677-3.074,6.02
		c-0.207,1.321-0.287,2.649-0.223,3.982c0.127,2.603,0.047,5.207,0.102,7.811c0.012,0.514,0.023,1.027,0.061,1.539
		c0.018,0.236-0.051,0.304-0.283,0.305c-1.768,0.01-3.535,0.027-5.303,0.056c-0.247,0.004-0.297-0.081-0.292-0.304
		c0.053-2.716,0.083-5.432,0.152-8.146c0.043-1.719,0.128-3.436-0.182-5.139c-0.365-2.003-1.438-3.671-2.536-5.327
		c-0.08-0.12-0.161-0.237-0.241-0.356C32.991,30.439,32.821,30.253,32.559,30.145z"/>
	<path fill-rule="evenodd" clip-rule="evenodd" fill="#FFFFFF" d="M43.814,18.271c-0.01,3.085-2.447,5.501-5.537,5.49
		c-2.994-0.011-5.454-2.485-5.462-5.493c-0.008-3.032,2.5-5.515,5.56-5.503C41.383,12.777,43.826,15.25,43.814,18.271z"/>
	<path fill-rule="evenodd" clip-rule="evenodd" fill="#FFFFFF" d="M9.318,53.56c-0.427,0.299-0.687,0.712-0.813,1.211
		c-0.235,0.932-0.233,1.874-0.031,2.806c0.181,0.832,0.853,1.318,1.713,1.322c0.795,0.004,1.317-0.425,1.552-1.292
		c0.07-0.258,0.176-0.384,0.484-0.372c0.754,0.029,1.511,0.021,2.266,0.002c0.282-0.007,0.407,0.035,0.342,0.357
		c-0.374,1.867-1.455,3.234-3.521,3.61c-1.476,0.27-2.901,0.07-4.174-0.787c-1.2-0.808-1.762-2.017-1.925-3.397
		c-0.176-1.495,0.007-2.95,0.944-4.204c0.852-1.142,2.001-1.764,3.434-1.834c1.152-0.057,2.274,0.048,3.29,0.662
		c1.221,0.74,1.768,1.884,1.924,3.3c-0.934,0-1.863-0.003-2.792,0.003c-0.168,0.002-0.216-0.093-0.261-0.223
		c-0.391-1.141-0.782-1.4-1.984-1.325C9.719,53.401,9.67,53.399,9.622,53.4C9.52,53.451,9.36,53.394,9.318,53.56z"/>
	<path fill-rule="evenodd" clip-rule="evenodd" fill="#FFFFFF" d="M62.412,73.102c-0.342,0.029-0.191-0.236-0.193-0.366
		c-0.01-1.303-0.006-2.605-0.006-3.908c0-1.673,0.016-3.347-0.012-5.019c-0.008-0.415,0.117-0.506,0.506-0.485
		c0.625,0.034,1.254,0.033,1.881,0.001c0.359-0.019,0.418,0.114,0.414,0.437c-0.018,1.412-0.008,2.824-0.008,4.37
		c0.545-0.667,1.023-1.232,1.477-1.819c0.193-0.25,0.395-0.366,0.723-0.356c0.908,0.025,1.818,0.008,2.84,0.008
		c-0.705,0.757-1.328,1.437-1.965,2.104c-0.646,0.676-0.648,0.67-0.133,1.442c0.791,1.181,1.578,2.365,2.414,3.618
		c-1.115,0-2.172,0.001-3.227,0c-0.184,0-0.223-0.162-0.295-0.28c-0.35-0.59-0.689-1.185-1.053-1.766
		c-0.088-0.14-0.102-0.464-0.334-0.36c-0.207,0.092-0.445,0.273-0.445,0.58c0,0.481-0.016,0.966,0.004,1.446
		c0.012,0.286-0.063,0.4-0.373,0.387c-0.705-0.031-1.412-0.026-2.119-0.036c-0.088-0.167-0.043-0.347-0.043-0.52
		c-0.004-2.73-0.002-5.46-0.004-8.19c0-0.159,0.023-0.32-0.051-0.591c0.068,0.271,0.047,0.434,0.047,0.593
		c0.002,2.73,0.002,5.46,0,8.19C62.457,72.755,62.502,72.935,62.412,73.102z"/>
	<path fill-rule="evenodd" clip-rule="evenodd" fill="#FFFFFF" d="M58.352,54.972c0.836-1.11,1.836-1.495,3.066-1.211
		c1.209,0.279,1.834,0.985,1.953,2.225c0.152,1.586,0.039,3.18,0.074,4.77c0.006,0.217-0.08,0.271-0.281,0.27
		c-0.738-0.008-1.479-0.016-2.217,0.003c-0.275,0.008-0.309-0.105-0.305-0.339c0.01-1.06,0.006-2.121,0.002-3.182
		c0-0.208-0.012-0.418-0.043-0.624c-0.096-0.666-0.42-0.981-0.975-0.966c-0.598,0.017-0.9,0.296-0.986,0.955
		c-0.162,1.231-0.049,2.47-0.063,3.706c-0.004,0.346-0.063,0.473-0.439,0.453c-0.689-0.035-1.383-0.018-2.072-0.005
		c-0.23,0.003-0.303-0.065-0.301-0.299c0.008-2.186,0.008-4.372,0.002-6.558c0-0.2,0.045-0.292,0.266-0.289
		c0.689,0.01,1.381,0.008,2.072-0.001c0.184-0.002,0.262,0.046,0.25,0.241C58.342,54.36,58.352,54.602,58.352,54.972z"/>
	<path fill-rule="evenodd" clip-rule="evenodd" fill="#FFFFFF" d="M34.5,55.802c-0.539,1.608-1.086,3.214-1.608,4.826
		c-0.098,0.304-0.222,0.417-0.556,0.403c-0.803-0.031-1.608-0.007-2.411-0.015c-0.123,0-0.275,0.076-0.347-0.142
		c-0.467-1.434-0.948-2.863-1.424-4.294c0.104-0.127,0.018-0.166-0.09-0.194c-0.28-0.811-0.561-1.621-0.867-2.503
		c0.911,0,1.767-0.002,2.623,0.001c0.256,0.001,0.23,0.221,0.274,0.379c0.363,1.317,0.724,2.635,1.122,4.082
		c0.188-0.675,0.345-1.233,0.498-1.794c0.213-0.784,0.425-1.568,0.627-2.354c0.052-0.203,0.108-0.328,0.368-0.321
		c0.786,0.021,1.572,0.008,2.391,0.008c-0.137,0.465-0.265,0.901-0.393,1.338C34.616,55.407,34.736,55.668,34.5,55.802z"/>
	<path fill-rule="evenodd" clip-rule="evenodd" fill="#FFFFFF" d="M22.443,63.748c0.354,0,0.708,0.015,1.062-0.005
		c0.262-0.015,0.333,0.091,0.326,0.336c-0.014,0.514,0.003,1.03-0.01,1.544c-0.005,0.231,0.036,0.351,0.311,0.35
		c0.331-0.003,0.796-0.163,0.961,0.066c0.17,0.237,0.02,0.684,0.079,1.026c0.093,0.538-0.177,0.577-0.602,0.561
		c-0.743-0.027-0.743-0.007-0.743,0.724c0,0.611-0.002,1.222,0.003,1.833c0.005,0.733,0.142,0.902,0.861,0.891
		c0.393-0.007,0.495,0.114,0.468,0.484c-0.031,0.433-0.017,0.869-0.003,1.303c0.006,0.207-0.074,0.293-0.272,0.299
		c-0.883,0.027-1.768,0.096-2.643-0.078c-0.697-0.138-1.057-0.6-1.141-1.408c-0.122-1.172-0.063-2.348-0.055-3.521
		c0.002-0.403-0.074-0.62-0.517-0.535c-0.412,0.08-0.551-0.096-0.486-0.49c0.019-0.109,0.003-0.225,0.003-0.338
		c-0.001-0.771-0.001-0.78,0.785-0.818c0.209-0.011,0.275-0.066,0.27-0.275c-0.014-0.515,0.012-1.03-0.011-1.544
		c-0.014-0.303,0.054-0.442,0.391-0.41C21.798,63.772,22.122,63.748,22.443,63.748z"/>
	<path fill-rule="evenodd" clip-rule="evenodd" fill="#FFFFFF" d="M18.397,56.097c0,1.511-0.008,3.022,0.007,4.533
		c0.003,0.306-0.065,0.412-0.39,0.399c-0.69-0.027-1.382-0.02-2.073-0.002c-0.262,0.007-0.351-0.053-0.35-0.336
		c0.01-3.037,0.012-6.075-0.002-9.113c-0.001-0.341,0.121-0.393,0.415-0.385c0.674,0.018,1.351,0.021,2.025-0.004
		c0.299-0.011,0.379,0.076,0.376,0.375C18.389,53.075,18.397,54.586,18.397,56.097z"/>
	<path fill-rule="evenodd" clip-rule="evenodd" fill="#FFFFFF" d="M46.293,56.098c0,1.511-0.01,3.022,0.006,4.532
		c0.004,0.306-0.063,0.412-0.389,0.399c-0.705-0.027-1.414-0.016-2.121-0.003c-0.223,0.003-0.303-0.048-0.301-0.289
		c0.008-3.086,0.008-6.171,0-9.257c0-0.248,0.1-0.289,0.313-0.285c0.709,0.01,1.416,0.018,2.123-0.004
		c0.297-0.01,0.379,0.074,0.375,0.374C46.283,53.076,46.293,54.587,46.293,56.098z"/>
	<path fill-rule="evenodd" clip-rule="evenodd" fill="#FFFFFF" d="M28.433,67.21c0.44-0.925,1.114-1.419,2.121-1.451
		c0.266-0.01,0.409,0.042,0.399,0.365c-0.024,0.739-0.015,1.479-0.001,2.219c0.004,0.25-0.04,0.33-0.317,0.277
		c-1.09-0.208-1.826,0.396-1.919,1.508c-0.074,0.884-0.035,1.768-0.039,2.651c-0.001,0.268-0.072,0.363-0.353,0.355
		c-0.707-0.02-1.415-0.017-2.122-0.002c-0.256,0.006-0.331-0.078-0.331-0.329c0.008-2.171,0.008-4.342,0-6.513
		c0-0.25,0.075-0.336,0.33-0.33c0.643,0.016,1.287,0.011,1.929-0.001c0.223-0.003,0.319,0.06,0.306,0.299
		C28.419,66.574,28.433,66.893,28.433,67.21z"/>
	<path fill-rule="evenodd" clip-rule="evenodd" fill="#FFFFFF" d="M59.148,67.257c0.395-0.741,0.883-1.304,1.752-1.459
		c0.721-0.128,0.809-0.078,0.809,0.646c0,0.644-0.004,1.287,0.004,1.93c0.002,0.198-0.027,0.293-0.266,0.263
		c-1.32-0.164-1.973,0.377-2.02,1.702c-0.029,0.803-0.023,1.608,0,2.412c0.01,0.323-0.086,0.397-0.4,0.386
		c-0.689-0.026-1.381-0.012-2.072-0.003c-0.221,0.002-0.344-0.011-0.342-0.301c0.014-2.187,0.012-4.374,0.002-6.561
		c-0.002-0.27,0.098-0.318,0.336-0.312c0.627,0.014,1.254,0.017,1.881-0.002c0.268-0.008,0.332,0.095,0.32,0.335
		C59.137,66.613,59.148,66.936,59.148,67.257z"/>
	<path fill-rule="evenodd" clip-rule="evenodd" fill="#FFFFFF" d="M62.412,73.102c0-3.106,0-6.213,0-9.318
		c0.033,0.001,0.064,0.001,0.096,0.001c0,3.104,0,6.21,0,9.314C62.477,73.1,62.445,73.101,62.412,73.102z"/>
	<path fill-rule="evenodd" clip-rule="evenodd" fill="#FFFFFF" d="M17.623,73.066c-0.142-0.176-0.308-0.386-0.13-0.586
		c0.17-0.193,0.414-0.164,0.639-0.002c0.107,0.077,0.257,0.094,0.388,0.138C18.272,72.869,17.939,72.953,17.623,73.066z"/>
	<path fill-rule="evenodd" clip-rule="evenodd" fill="#FFFFFF" d="M43.098,42.971c0.197,0.151,0.389,0.252,0.637,0.079
		c0.271-0.189,0.328,0.209,0.533,0.22c-0.188,0.124-0.406,0.143-0.617,0.191C43.041,43.601,43.041,43.603,43.098,42.971z"/>
	<path fill-rule="evenodd" clip-rule="evenodd" fill="#FFFFFF" d="M13.085,72.422c0.185-0.373,0.515-0.096,0.612-0.021
		c0.188,0.144,0.466,0.307,0.437,0.634C13.742,72.901,13.369,72.738,13.085,72.422z"/>
	<path fill-rule="evenodd" clip-rule="evenodd" fill="#FFFFFF" d="M34.5,55.802c0.039-0.204,0.084-0.405,0.207-0.58
		c0.067,0.256,0.148,0.505,0.367,0.68c-0.06,0.129-0.05,0.287-0.17,0.39C34.735,56.155,34.784,55.842,34.5,55.802z"/>
	<path fill-rule="evenodd" clip-rule="evenodd" fill="#FFFFFF" d="M64.918,60.258c0.254-0.342,0.467-0.027,0.629,0.087
		c0.133,0.095-0.105,0.227-0.137,0.357C65.201,60.604,65.039,60.455,64.918,60.258z"/>
	<path fill-rule="evenodd" clip-rule="evenodd" fill="#FFFFFF" d="M49.086,16.25c0.113-0.247,0.313-0.281,0.586-0.234
		c-0.107,0.223-0.203,0.422-0.299,0.621C49.232,16.542,49.146,16.405,49.086,16.25z"/>
	<path fill-rule="evenodd" clip-rule="evenodd" fill="#FFFFFF" d="M26.417,10.06c-0.102,0.158-0.232,0.289-0.39,0.393
		c-0.067-0.198-0.425-0.39,0.03-0.589C26.317,9.749,26.281,10.03,26.417,10.06z"/>
	<path fill-rule="evenodd" clip-rule="evenodd" fill="#FFFFFF" d="M50.535,9.585c-0.16-0.095-0.293-0.217-0.391-0.375
		c0.104-0.279,0.281-0.148,0.414-0.053C50.754,9.296,50.527,9.44,50.535,9.585z"/>
	<path fill-rule="evenodd" clip-rule="evenodd" fill="#FFFFFF" d="M32.559,30.145c0.412,0.024,0.564,0.202,0.493,0.574
		C32.856,30.555,32.692,30.363,32.559,30.145z"/>
	<path fill-rule="evenodd" clip-rule="evenodd" fill="#FFFFFF" d="M11.266,63.677c0.002-0.331-0.129-0.352-0.39-0.35
		c-1.029,0.012-2.059,0.023-3.086-0.005c-0.316-0.009-0.4,0.132-0.468,0.381c-0.357,1.323-0.713,2.647-1.087,3.966
		c-0.148,0.521-0.238,1.063-0.506,1.643c-0.527-1.913-1.038-3.731-1.524-5.558c-0.089-0.336-0.234-0.438-0.578-0.431
		c-1.125,0.025-2.25,0.013-3.376,0.015c0,3.249,0,6.499,0,9.749c0.784,0.095,1.572-0.001,2.355,0.05
		c0.378,0.024,0.496-0.073,0.486-0.467c-0.037-1.494-0.038-2.989-0.052-4.485c0.063-0.159-0.045-0.351,0.086-0.499
		c0.483,1.711,0.973,3.419,1.439,5.134c0.063,0.231,0.14,0.318,0.374,0.314c0.545-0.012,1.09-0.002,1.635-0.004
		c0.159-0.001,0.29,0.006,0.351-0.22c0.501-1.873,1.021-3.741,1.535-5.61c0.037-0.027,0.046-0.091,0.109-0.086
		c-0.009,0.025-0.012,0.053-0.007,0.081c-0.169,1.81-0.105,3.626-0.131,5.44c-0.004,0.316,0.082,0.412,0.401,0.401
		c0.69-0.024,1.383-0.019,2.074-0.001c0.267,0.007,0.358-0.059,0.357-0.343C11.252,69.754,11.25,66.715,11.266,63.677z M3.001,67.21
		C3,67.209,2.998,67.209,2.997,67.208C2.995,67.188,2.998,67.188,3.001,67.21z"/>
	<path fill-rule="evenodd" clip-rule="evenodd" fill="#FFFFFF" d="M34.035,3.977c0.095,0.168,0.324-0.06,0.417,0.164
		c-0.192,0.089-0.371,0.16-0.518-0.08C33.968,4.032,34.001,4.004,34.035,3.977z"/>
	<path fill-rule="evenodd" clip-rule="evenodd" fill="#FFFFFF" d="M43.391,10.831c0.109,0.011,0.168-0.252,0.307-0.063
		c0.07,0.095,0.104,0.203-0.045,0.27C43.537,11.003,43.443,10.942,43.391,10.831z"/>
	<path fill-rule="evenodd" clip-rule="evenodd" fill="#FFFFFF" d="M27.247,59.646c0.005,0.083-0.027,0.143-0.096,0.152
		c-0.1,0.015-0.135-0.063-0.148-0.145c-0.011-0.065,0.003-0.135,0.085-0.14C27.18,59.509,27.226,59.574,27.247,59.646z"/>
	<path fill-rule="evenodd" clip-rule="evenodd" fill="#FFFFFF" d="M28.063,56.387c0.097-0.032,0.22-0.168,0.287-0.045
		c0.069,0.129-0.052,0.222-0.197,0.239C28.106,56.524,28.037,56.478,28.063,56.387z"/>
	<path fill-rule="evenodd" clip-rule="evenodd" fill="#FFFFFF" d="M27.466,33.03c-0.083-0.03-0.109-0.102-0.128-0.178
		c0.105,0.006,0.134-0.241,0.258-0.103C27.722,32.891,27.575,32.965,27.466,33.03z"/>
	<path fill-rule="evenodd" clip-rule="evenodd" fill="#FFFFFF" d="M33.058,11.864c0.161,0.004,0.261-0.104,0.357,0.001
		c0.016,0.018-0.004,0.098-0.032,0.12C33.266,12.082,33.186,12,33.058,11.864z"/>
	<path fill-rule="evenodd" clip-rule="evenodd" fill="#FFFFFF" d="M43.875,11.224c0.045-0.082,0.086-0.2,0.205-0.125
		c0.135,0.086,0.039,0.197-0.004,0.297C43.984,11.368,43.91,11.321,43.875,11.224z"/>
	<path fill-rule="evenodd" clip-rule="evenodd" fill="#FFFFFF" d="M9.318,53.56c-0.037-0.042-0.075-0.085-0.112-0.127
		c0.134-0.067,0.269-0.123,0.416-0.032C9.521,53.453,9.419,53.507,9.318,53.56z"/>
	<path fill-rule="evenodd" clip-rule="evenodd" fill="#FFFFFF" d="M35.724,10.016c-0.046,0.097-0.115,0.132-0.202,0.125
		c-0.052-0.003-0.091-0.04-0.059-0.093c0.04-0.067,0.089-0.143,0.183-0.123C35.678,9.931,35.7,9.987,35.724,10.016z"/>
	<path fill-rule="evenodd" clip-rule="evenodd" fill="#FFFFFF" d="M49.189,17.047c-0.041-0.033-0.145-0.029-0.105-0.11
		c0.018-0.041,0.104-0.064,0.16-0.069c0.027-0.002,0.084,0.062,0.082,0.093C49.32,17.034,49.266,17.065,49.189,17.047z"/>
	<path fill-rule="evenodd" clip-rule="evenodd" fill="#FFFFFF" d="M29.047,65.426c0.139,0.037,0.215,0.104,0.226,0.265
		C29.133,65.653,29.057,65.586,29.047,65.426z"/>
	<path fill-rule="evenodd" clip-rule="evenodd" fill="#FFFFFF" d="M8.46,67.3c-0.016-0.143,0.083-0.235,0.148-0.363
		c0.051,0.144,0.052,0.258-0.046,0.358C8.528,67.296,8.494,67.298,8.46,67.3z"/>
	<path fill-rule="evenodd" clip-rule="evenodd" fill="#FFFFFF" d="M34.888,56.389c0.013,0.105,0.038,0.214-0.069,0.292
		C34.66,56.611,34.66,56.611,34.888,56.389z"/>
	<path fill-rule="evenodd" clip-rule="evenodd" fill="#FFFFFF" d="M28.018,17.333c-0.037,0.04-0.06,0.09-0.094,0.098
		c-0.07,0.017-0.118-0.031-0.109-0.099c0.004-0.032,0.058-0.08,0.091-0.081C27.939,17.25,27.974,17.298,28.018,17.333z"/>
	<path fill-rule="evenodd" clip-rule="evenodd" fill="#FFFFFF" d="M55.73,15.302c-0.076,0.043-0.121,0.08-0.172,0.094
		c-0.059,0.015-0.084-0.033-0.063-0.079c0.018-0.037,0.057-0.079,0.094-0.087C55.619,15.223,55.66,15.263,55.73,15.302z"/>
	<path fill-rule="evenodd" clip-rule="evenodd" fill="#FFFFFF" d="M26.688,9.856c0.108,0.056,0.298-0.175,0.338,0.081
		c0.033,0.208-0.166,0.115-0.247,0.128c-0.259,0.042-0.018-0.155-0.087-0.213L26.688,9.856z"/>
	<path fill-rule="evenodd" clip-rule="evenodd" fill="#FFFFFF" d="M39.9,7.698c-0.217,0.057-0.361,0.164-0.486-0.015
		C39.557,7.531,39.697,7.622,39.9,7.698z"/>
	<path fill-rule="evenodd" clip-rule="evenodd" fill="#FFFFFF" d="M24.848,12.366c-0.071,0.113-0.153,0.178-0.276,0.121
		c-0.022-0.011-0.038-0.099-0.021-0.115C24.641,12.283,24.741,12.317,24.848,12.366z"/>
	<path fill-rule="evenodd" clip-rule="evenodd" fill="#FFFFFF" d="M23.842,36.938c-0.043,0.027-0.089,0.067-0.142,0.086
		c-0.073,0.027-0.137-0.016-0.128-0.085c0.005-0.044,0.07-0.1,0.12-0.117C23.756,36.801,23.811,36.846,23.842,36.938z"/>
	<path fill-rule="evenodd" clip-rule="evenodd" fill="#FFFFFF" d="M31.41,6.425c-0.09,0.05-0.135,0.09-0.186,0.098
		c-0.036,0.006-0.098-0.018-0.115-0.048c-0.044-0.075,0.01-0.128,0.078-0.13C31.244,6.343,31.301,6.383,31.41,6.425z"/>
	<path fill-rule="evenodd" clip-rule="evenodd" fill="#FFFFFF" d="M22.265,34.864c-0.034-0.068-0.073-0.117-0.063-0.134
		c0.029-0.047,0.074-0.098,0.124-0.115c0.051-0.018,0.077,0.034,0.053,0.082C22.354,34.746,22.317,34.789,22.265,34.864z"/>
	<path fill-rule="evenodd" clip-rule="evenodd" fill="#FFFFFF" d="M42.799,10.11c-0.086-0.021-0.143-0.056-0.111-0.13
		c0.012-0.031,0.078-0.068,0.107-0.06c0.053,0.015,0.098,0.061,0.145,0.094C42.889,10.048,42.84,10.083,42.799,10.11z"/>
	<g>
		<path fill="#FFFFFF" d="M46.822,67.25c-0.551-1.069-1.525-1.53-2.705-1.478c-0.838,0.038-1.549,0.394-2.076,1.204
			c0-0.237-0.016-0.366,0.004-0.489c0.068-0.414-0.07-0.571-0.514-0.533c-0.51,0.045-1.027,0.04-1.539,0.001
			c-0.4-0.03-0.467,0.122-0.465,0.482c0.014,3.021,0.008,6.042,0.008,9.063c0.934,0,1.867,0,2.799,0c0-0.981,0-1.964,0-3.034
			c0.406,0.455,0.787,0.724,1.283,0.823c1.191,0.238,2.535-0.298,3.143-1.366C47.631,70.394,47.619,68.8,46.822,67.25z
			 M43.965,71.513c-0.037-0.001-0.102-0.044-0.105-0.074c-0.016-0.111,0.09-0.159,0.16-0.204c0.061-0.041,0.102,0.037,0.125,0.099
			C44.133,71.439,44.078,71.514,43.965,71.513z M44.33,70.611c-0.215,0.348-0.52,0.556-0.949,0.545
			c-0.414-0.01-0.701-0.219-0.875-0.572c-0.305-0.615-0.352-1.253-0.107-1.902c0.211-0.557,0.633-0.859,1.115-0.804
			c0.545,0.063,0.961,0.518,1.037,1.148c0.018,0.158,0.002,0.321,0.002,0.473C44.602,69.899,44.535,70.275,44.33,70.611z"/>
		<path fill="#FFFFFF" d="M44.02,71.234c-0.07,0.045-0.176,0.093-0.16,0.204c0.004,0.03,0.068,0.073,0.105,0.074
			c0.113,0.001,0.168-0.073,0.18-0.18C44.121,71.271,44.08,71.193,44.02,71.234z"/>
	</g>
	<path fill-rule="evenodd" clip-rule="evenodd" fill="#FFFFFF" d="M40.145,28.312c-0.234-0.144-0.385-0.251-0.098-0.447
		C40.076,28.003,40.104,28.13,40.145,28.312z"/>
	<path fill-rule="evenodd" clip-rule="evenodd" fill="#FFFFFF" d="M35.134,22.145c0.04,0.077,0.077,0.122,0.088,0.174
		c0.012,0.058-0.039,0.078-0.082,0.056c-0.037-0.019-0.078-0.059-0.085-0.095C35.05,22.25,35.093,22.211,35.134,22.145z"/>
	<path fill-rule="evenodd" clip-rule="evenodd" fill="#FFFFFF" d="M9.08,53.029c0.044,0.061,0.097,0.113,0.088,0.126
		c-0.03,0.045-0.077,0.082-0.125,0.109c-0.007,0.005-0.079-0.065-0.073-0.082C8.989,53.133,9.032,53.093,9.08,53.029z"/>
	<g>
		<path fill="#FFFFFF" d="M71.877,51.53c0.002-0.287-0.1-0.342-0.357-0.336c-0.676,0.016-1.354,0.022-2.027-0.003
			c-0.33-0.013-0.438,0.068-0.428,0.417c0.025,0.958,0.008,1.917,0.008,2.91c-1.242-1.01-2.635-1.124-3.66-0.307
			c-0.791,0.631-1.191,1.497-1.313,2.479c-0.158,1.28-0.107,2.528,0.818,3.566c0.324-0.029,0.59,0.009,0.492,0.444
			c0.617,0.496,1.342,0.539,2.09,0.522c0.793-0.017,1.326-0.493,1.861-1.083c0,0.202,0.018,0.317-0.002,0.427
			c-0.068,0.388,0.102,0.48,0.469,0.461c0.576-0.031,1.156-0.022,1.736-0.002c0.266,0.01,0.313-0.087,0.313-0.327
			C71.869,57.644,71.867,54.587,71.877,51.53z M69.064,58.287c-0.189,0.614-0.662,0.949-1.248,0.898
			c-0.518-0.046-0.854-0.4-0.957-1.037c-0.029-0.189-0.021-0.384-0.029-0.529c0.016-0.318,0.008-0.585,0.1-0.852
			c0.201-0.591,0.51-0.863,1.045-0.87c0.549-0.006,0.912,0.276,1.092,0.874C69.219,57.274,69.221,57.784,69.064,58.287z"/>
	</g>
	<g>
		<path fill="#FFFFFF" d="M54.693,59.518c0.008-1.205,0.008-2.41-0.002-3.615c-0.008-1.01-0.48-1.689-1.445-1.963
			c-1.447-0.411-2.912-0.377-4.35,0.053c-0.869,0.261-1.387,0.876-1.527,1.788c-0.031,0.199-0.025,0.331,0.246,0.325
			c0.723-0.017,1.447-0.006,2.17-0.006c0.125,0,0.213,0,0.301-0.152c0.309-0.531,0.865-0.702,1.428-0.479
			c0.219,0.087,0.398,0.214,0.404,0.478c0.006,0.262-0.152,0.419-0.377,0.499c-0.377,0.134-0.77,0.193-1.166,0.237
			c-0.73,0.08-1.461,0.161-2.148,0.457c-0.949,0.409-1.342,1.104-1.258,2.236c0.061,0.831,0.652,1.534,1.549,1.735
			c1.275,0.287,2.48,0.144,3.504-0.749c0.238,0.193-0.023,0.628,0.334,0.645c0.902,0.039,1.807,0.013,2.84,0.013
			C54.674,60.543,54.691,60.032,54.693,59.518z M50.684,59.609c-0.318-0.025-0.711-0.027-0.824-0.489
			c-0.094-0.392,0.127-0.656,0.666-0.819c0.393-0.118,0.793-0.211,1.186-0.329c0.145-0.044,0.207-0.026,0.213,0.133
			C51.951,58.941,51.605,59.613,50.684,59.609z"/>
	</g>
	<path fill-rule="evenodd" clip-rule="evenodd" fill="#FFFFFF" d="M51.506,60.291c-0.041-0.034-0.143-0.029-0.105-0.11
		c0.018-0.041,0.104-0.063,0.16-0.068c0.027-0.002,0.084,0.062,0.082,0.093C51.639,60.278,51.58,60.307,51.506,60.291z"/>
	<g>
		<path fill="#FFFFFF" d="M55.465,71.764c0.008-1.205,0.014-2.41-0.006-3.614c-0.02-1.203-0.484-1.868-1.584-2.152
			c-1.457-0.377-2.922-0.356-4.352,0.144c-0.807,0.282-1.283,0.868-1.389,1.735c-0.025,0.215,0.012,0.318,0.268,0.312
			c0.723-0.018,1.445-0.009,2.168-0.009c0.127,0,0.223,0.013,0.281-0.167c0.133-0.412,0.486-0.514,0.883-0.52
			c0.576-0.009,0.934,0.18,0.934,0.533c-0.002,0.533-0.447,0.559-0.811,0.627c-0.768,0.144-1.551,0.217-2.313,0.391
			c-1.066,0.245-1.918,0.874-1.826,2.307c0.068,1.057,0.746,1.762,1.949,1.944c1.17,0.177,2.223-0.077,3.123-0.853
			c0.209,0.206-0.037,0.678,0.422,0.685c0.865,0.015,1.732,0.005,2.598,0.005C55.453,72.694,55.461,72.234,55.465,71.764z
			 M51.4,71.722c-0.355-0.02-0.723-0.083-0.787-0.535c-0.064-0.451,0.225-0.675,0.6-0.787c0.467-0.141,0.945-0.243,1.443-0.368
			C52.721,71.147,52.26,71.771,51.4,71.722z"/>
	</g>
	<g>
		<path fill="#FFFFFF" d="M27.272,57.861c-0.092-1.516-0.576-2.83-1.948-3.637c-0.992-0.584-2.081-0.652-3.204-0.446
			c-1.47,0.27-2.636,1.409-2.905,3.066c-0.241,1.479,0.103,2.938,1.572,3.775c1.648,0.938,3.369,0.853,5.022-0.068
			c0.526-0.294,0.886-0.771,1.114-1.342c0.086-0.217,0.105-0.32-0.182-0.315c-0.723,0.011-1.446,0.004-2.169,0.004
			c-0.125,0.001-0.213,0.02-0.319,0.137c-0.708,0.788-1.916,0.507-2.243-0.5c-0.095-0.293-0.074-0.438,0.3-0.426
			c0.754,0.025,1.51,0.007,2.266,0.007c0.787,0,1.575-0.001,2.362,0C27.116,58.116,27.29,58.154,27.272,57.861z M24.219,56.664
			c-0.335,0-0.671,0-1.006-0.001c-0.32,0-0.64-0.019-0.958,0.005c-0.293,0.021-0.316-0.132-0.277-0.35
			c0.098-0.554,0.682-0.944,1.34-0.898c0.527,0.038,1.111,0.587,1.146,1.06C24.478,56.691,24.344,56.663,24.219,56.664z"/>
	</g>
	<g>
		<path fill="#FFFFFF" d="M37.577,66.544c-2.602-1.949-6.253-0.441-6.6,2.761c-0.131,1.209,0.217,2.313,1.199,3.141
			c0.691,0.582,1.511,0.828,2.383,0.884c2.344,0.148,4.341-0.966,4.402-3.965C38.938,68.354,38.584,67.298,37.577,66.544z
			 M35.953,70.733c-0.165,0.434-0.51,0.673-0.956,0.687c-0.424,0.013-0.778-0.182-0.964-0.593c-0.391-0.864-0.417-1.743,0.028-2.584
			c0.407-0.767,1.402-0.74,1.82,0.022c0.22,0.4,0.294,0.84,0.278,1.296C36.178,69.967,36.095,70.357,35.953,70.733z"/>
	</g>
	<path fill-rule="evenodd" clip-rule="evenodd" fill="#FFFFFF" d="M36.606,72.343c0.162,0.106,0.249,0.163,0.346,0.227
		C36.795,72.629,36.691,72.606,36.606,72.343z"/>
	<g>
		<path fill="#FFFFFF" d="M37.971,58.105c1.332,0.027,2.664,0.011,3.996,0.011c0.977,0,1.002-0.03,0.844-1.017
			c-0.297-1.862-1.51-3.121-3.441-3.387c-1.678-0.23-3.442,0.356-4.296,2.188c-0.186,0.073-0.109,0.262-0.17,0.39
			c-0.005,0.032-0.01,0.064-0.015,0.098c-0.042,0.093-0.043,0.195-0.069,0.292c-0.008,0.386-0.036,0.771-0.022,1.155
			c0.047,1.304,0.623,2.328,1.797,2.898c1.612,0.781,3.245,0.708,4.809-0.179c0.631-0.357,1.025-0.923,1.217-1.658
			c-0.84,0-1.643,0-2.443-0.001c-0.111,0-0.223-0.016-0.289,0.113c-0.135,0.263-0.412,0.338-0.64,0.48
			c-0.19,0.196-0.381,0.441-0.578,0.006c-0.484-0.143-0.861-0.415-1.035-0.906C37.529,58.294,37.533,58.097,37.971,58.105z
			 M37.599,56.318c0.083-0.537,0.599-0.914,1.242-0.898c0.569,0.015,1.136,0.502,1.19,0.996c0.021,0.199-0.037,0.255-0.225,0.25
			c-0.338-0.01-0.675-0.003-1.013-0.003c-0.306-0.001-0.612-0.018-0.916,0.005C37.588,56.688,37.564,56.545,37.599,56.318z"/>
		<path fill="#FFFFFF" d="M39.247,59.49c-0.192,0.002-0.385,0.003-0.578,0.006C38.863,59.603,39.056,59.571,39.247,59.49z"/>
		<path fill="#FFFFFF" d="M39.247,59.49c-0.191,0.081-0.384,0.112-0.578,0.006C38.866,59.932,39.057,59.687,39.247,59.49z"/>
	</g>
	<g>
		<path fill="#FFFFFF" d="M15.042,70.187c1.494,0.022,2.988-0.008,4.481,0.021c0.388,0.007,0.458-0.12,0.423-0.46
			c-0.057-0.559-0.148-1.104-0.37-1.624c-0.761-1.794-2.571-2.688-4.691-2.255c-1.485,0.303-2.521,1.18-2.892,2.679
			c-0.365,1.474-0.141,2.827,1.091,3.874c0.531-0.106,0.779,0.271,1.049,0.612c1.159,0.448,2.322,0.393,3.489,0.032
			c-0.062-0.617-0.058-0.622,0.531-0.45c0.125,0.036,0.243,0.047,0.365,0c0.624-0.375,1.017-0.907,1.181-1.648
			c-0.833,0-1.604,0.002-2.374-0.002c-0.148-0.001-0.28,0.001-0.371,0.15c-0.502,0.83-1.946,0.527-2.244-0.473
			C14.603,70.276,14.64,70.181,15.042,70.187z M14.718,68.312c0.21-0.523,0.712-0.86,1.281-0.809
			c0.506,0.046,1.047,0.513,1.135,0.977c0.031,0.167,0.013,0.276-0.206,0.268c-0.353-0.013-0.707-0.003-1.06-0.004
			c-0.29,0-0.581-0.021-0.867,0.006C14.595,68.785,14.59,68.631,14.718,68.312z"/>
	</g>
	<path fill-rule="evenodd" clip-rule="evenodd" fill="#FFFFFF" d="M13.081,67.181c0.062,0.148,0.226,0.293,0.089,0.431
		c-0.023,0.024-0.11-0.015-0.168-0.024C13.028,67.451,13.054,67.315,13.081,67.181z"/>
</g>
</svg>
